# xmcd
#
# Track frame offsets: 
#        150
#        12787
#        29657
#        44520
#        61070
#        77730
#        91775
#        103854
#        121282
#        132820
#        150510
#        166457
#        177160
#        191055
#        210092
#        224367
#        238960
#        254367
#
# Disc length: 3565 seconds
#
# Revision: 1
# Processed by: cddbd v1.4PL0 Copyright (c) Steve Scherf et al.
# Submitted via: ExactAudioCopy v0.90b3
#
DISCID=f00deb12
DTITLE=Eddy Raven - Live At Billy Bob's
DYEAR=1900
DGENRE=Country
TTITLE0=I Could Use Another You
TTITLE1=Shine, Shine, Shine
TTITLE2=In A Letter To You
TTITLE3=Sooner Or Later
TTITLE4=Joe Knows How To Live
TTITLE5=Right Hand Man
TTITLE6=I Got Mexico
TTITLE7='Til You Cry
TTITLE8=I'm Gonna Get You
TTITLE9=We Robbed Trains
TTITLE10=Thank God For Kids
TTITLE11=A Little Bit Crazy
TTITLE12=Operator, Operator
TTITLE13=I Should Have Called/Who Do You Know In California (Medley)
TTITLE14=Island
TTITLE15=Sometimes A Lady
TTITLE16=I Wanna Hear It From You
TTITLE17=Bayou Boys
EXTD=
EXTT0=
EXTT1=
EXTT2=
EXTT3=
EXTT4=
EXTT5=
EXTT6=
EXTT7=
EXTT8=
EXTT9=
EXTT10=
EXTT11=
EXTT12=
EXTT13=
EXTT14=
EXTT15=
EXTT16=
EXTT17=
PLAYORDER=
